<?xml version="1.0" standalone="no"?>
<!DOCTYPE svg PUBLIC "-//W3C//DTD SVG 20010904//EN"
 "http://www.w3.org/TR/2001/REC-SVG-20010904/DTD/svg10.dtd">
<svg version="1.0" xmlns="http://www.w3.org/2000/svg"
 width="210.000000pt" height="213.000000pt" viewBox="0 0 210.000000 213.000000"
 preserveAspectRatio="xMidYMid meet">

<g transform="translate(0.000000,213.000000) scale(0.100000,-0.100000)"
fill="#000000" stroke="none">
<path d="M851 2103 c-55 -11 -85 -99 -60 -175 13 -39 48 -92 88 -133 16 -16
18 -24 8 -40 -32 -55 -51 -175 -28 -175 5 0 7 -8 4 -19 -9 -37 46 -153 94
-199 69 -65 113 -82 225 -88 91 -5 100 -4 145 20 79 43 122 142 101 233 -13
59 -56 110 -84 99 -16 -6 -16 -8 0 -25 16 -17 16 -19 1 -25 -9 -3 -22 -3 -28
1 -6 4 -1 -7 11 -24 12 -17 22 -36 22 -42 0 -5 7 -14 16 -19 15 -8 15 -13 -1
-61 -16 -49 -33 -73 -22 -31 5 19 4 19 -18 2 -21 -15 -25 -40 -5 -27 5 3 11 1
15 -5 4 -6 12 -7 18 -3 7 4 6 0 -2 -10 -14 -18 -26 -23 -16 -8 3 5 1 12 -5 16
-5 3 -10 3 -10 -2 0 -4 -11 -16 -25 -25 -17 -13 -29 -16 -47 -9 -20 9 -11 16
15 12 4 -1 17 4 29 10 20 11 20 12 3 21 -12 8 -20 7 -26 -3 -6 -11 -9 -11 -9
-1 0 7 14 21 31 31 17 10 26 20 21 22 -5 2 0 13 11 24 17 17 19 17 14 3 -4
-10 -2 -18 3 -18 15 0 12 46 -7 84 -21 45 -33 38 -23 -14 4 -22 3 -40 -1 -40
-5 0 -10 16 -10 35 -3 58 -3 60 -19 72 -12 9 -16 7 -22 -15 -4 -14 -3 -29 2
-32 5 -3 12 -20 16 -36 5 -27 2 -32 -24 -43 -55 -23 -106 12 -95 64 3 11 7 34
10 52 4 24 9 30 22 26 9 -4 13 -3 9 2 -4 4 5 19 20 32 22 19 36 23 77 21 45
-3 50 -1 47 17 -5 28 -22 36 -46 22 -12 -6 -33 -12 -48 -13 -30 -2 -102 -64
-125 -108 -16 -31 -11 -81 13 -128 l14 -28 -37 6 c-103 16 -157 138 -129 290
5 23 16 39 34 49 15 8 38 26 51 40 15 16 27 22 31 15 4 -6 12 0 20 15 11 20
16 22 27 13 11 -9 17 -9 24 3 6 9 9 10 9 2 0 -7 -10 -17 -21 -24 -15 -8 -19
-8 -15 0 4 6 2 11 -4 11 -6 0 -17 -15 -25 -32 -8 -19 -14 -26 -15 -15 0 9 -4
17 -8 17 -16 0 -30 -22 -24 -42 4 -15 7 -17 14 -6 7 9 8 1 5 -24 -5 -31 -2
-39 18 -52 34 -22 49 -20 81 13 16 16 47 47 69 70 22 23 48 44 58 47 9 3 15 9
12 13 -6 10 96 21 124 14 12 -3 21 -11 21 -18 0 -7 14 -18 30 -24 17 -5 30
-12 30 -15 0 -5 -36 5 -75 20 -34 12 -9 -7 42 -33 26 -13 38 -22 26 -20 -12 3
-24 0 -26 -7 -3 -8 -8 -7 -20 2 -9 8 -20 11 -25 8 -6 -3 -15 1 -22 9 -11 13
-10 15 6 9 17 -5 17 -4 2 5 -18 12 -51 4 -42 -10 3 -5 2 -14 -2 -20 -4 -8 -9
-7 -15 2 -7 11 -9 10 -9 -3 0 -16 90 -68 117 -68 20 0 34 25 21 38 -7 7 -8 12
-2 12 5 0 15 -10 23 -22 7 -13 10 -20 6 -15 -5 4 -16 0 -26 -9 -17 -15 -16
-17 12 -45 18 -18 24 -29 16 -29 -8 0 -20 -7 -27 -15 -9 -11 -6 -23 19 -59 17
-24 31 -51 31 -58 0 -7 7 -26 15 -41 14 -27 11 -62 -5 -52 -4 3 -13 -10 -19
-28 -8 -22 -14 -28 -20 -19 -4 7 -12 12 -17 11 -5 -1 -16 -1 -24 0 -11 1 -12
3 -3 9 17 11 0 34 -20 26 -9 -3 -17 -15 -17 -26 0 -10 5 -16 10 -13 6 3 10 1
10 -4 0 -6 -7 -11 -15 -11 -13 0 -20 -18 -16 -42 0 -5 -4 -8 -10 -8 -6 0 -8
-8 -5 -18 4 -12 -1 -25 -13 -36 -31 -29 -162 -62 -147 -37 3 5 -2 11 -12 14
-9 3 -42 15 -72 26 -58 22 -110 27 -110 11 0 -5 -9 -1 -19 9 -11 11 -37 25
-58 30 -21 6 -52 24 -70 41 -18 16 -36 30 -40 30 -4 0 -19 16 -32 35 -13 19
-32 44 -42 56 -11 12 -31 47 -47 78 -23 48 -27 70 -29 150 -1 51 -6 98 -12
104 -14 14 -70 -29 -87 -67 -12 -28 -19 -22 -15 12 1 6 -3 12 -9 12 -6 0 -8 5
-5 10 3 6 2 10 -4 10 -18 0 8 63 54 130 50 73 54 91 25 120 -31 31 -74 26
-119 -16 -32 -28 -42 -47 -52 -92 -7 -31 -13 -65 -12 -74 0 -10 -4 -15 -8 -12
-5 3 -9 16 -9 28 0 43 -33 127 -59 150 -14 12 -31 31 -37 41 -15 26 -33 30
-41 8 -3 -10 -12 -22 -20 -26 -7 -4 -13 -15 -13 -22 0 -8 -6 -15 -12 -16 -7 0
-3 -5 9 -11 13 -6 23 -14 23 -18 0 -4 7 -24 15 -44 12 -29 18 -34 28 -24 16
14 19 48 7 63 -11 13 -2 55 11 55 5 0 9 -8 9 -19 0 -10 7 -24 16 -31 24 -21
37 -51 45 -106 8 -63 67 -222 91 -248 31 -34 10 -31 -23 3 -17 18 -29 38 -26
44 3 7 -8 44 -24 82 -15 39 -28 63 -28 53 -1 -9 -4 -18 -8 -21 -5 -2 -3 -3 3
-1 7 1 21 -22 32 -52 11 -29 16 -51 11 -48 -5 3 -9 0 -9 -5 0 -17 -39 11 -46
33 -5 15 -8 16 -15 5 -7 -11 -9 -11 -9 3 0 25 -92 156 -112 161 -10 3 -18 1
-18 -5 0 -6 -9 -8 -21 -5 -13 3 -19 1 -16 -6 2 -7 9 -12 16 -12 6 0 15 -4 19
-10 4 -5 14 -11 22 -13 11 -3 10 2 -4 17 -11 12 -15 21 -9 21 12 0 45 -36 68
-75 l17 -30 -26 28 c-14 15 -26 24 -26 18 0 -16 51 -71 61 -65 5 3 9 -1 9 -9
0 -8 7 -20 15 -27 8 -7 15 -21 15 -32 0 -16 -3 -17 -20 -8 -11 6 -18 15 -15
20 3 6 0 7 -8 4 -8 -3 -18 -1 -22 5 -3 6 2 11 12 12 19 0 -132 77 -154 78 -7
1 -13 6 -13 11 0 6 -10 10 -22 10 -13 0 -30 5 -38 10 -38 24 70 -6 129 -37 43
-22 59 -27 46 -14 -29 27 -116 71 -142 71 -12 0 -25 5 -28 10 -7 11 27 6 73
-11 13 -5 24 -9 26 -9 1 0 -22 26 -51 57 -29 31 -51 59 -48 61 8 8 71 -54 67
-66 -2 -7 1 -12 7 -12 15 0 43 58 32 64 -5 4 -11 0 -13 -6 -3 -8 -10 -3 -18
12 -7 14 -18 28 -24 32 -7 5 -6 8 3 8 11 0 11 3 1 15 -7 8 -16 13 -20 10 -4
-3 -14 3 -21 13 -13 16 -13 16 6 2 18 -14 19 -14 7 2 -8 9 -19 15 -27 12 -18
-7 -60 52 -44 62 7 4 9 3 6 -3 -9 -14 21 -39 56 -47 15 -3 27 -11 27 -16 0 -6
7 -10 16 -10 8 0 12 5 9 10 -3 6 -2 10 3 10 13 0 33 -25 26 -33 -3 -3 8 -13
24 -21 17 -9 37 -30 46 -47 20 -40 20 -38 -4 -32 -11 3 -20 1 -20 -4 0 -5 12
-9 27 -9 14 1 28 -5 31 -13 3 -9 0 -11 -8 -6 -9 5 -11 4 -6 -4 4 -6 12 -9 17
-6 5 4 14 -6 20 -22 21 -56 109 -177 109 -150 0 14 -38 75 -54 88 -12 9 -27
34 -35 55 -7 22 -21 48 -31 59 -10 11 -25 34 -33 51 -9 17 -22 36 -31 43 -8 7
-13 18 -10 25 12 31 -110 101 -128 74 -5 -9 -8 -8 -8 5 0 13 -8 17 -36 17
l-36 0 7 -42 c4 -24 14 -53 23 -66 8 -12 12 -25 9 -28 -3 -3 -8 4 -12 15 -3
12 -11 21 -16 21 -12 0 -12 -17 1 -25 6 -4 8 -10 5 -15 -3 -4 3 -31 12 -60 16
-49 16 -53 0 -65 -9 -7 -17 -19 -17 -27 0 -22 76 -98 99 -98 12 0 21 -5 21
-11 0 -5 4 -8 9 -4 5 3 12 1 16 -5 3 -5 23 -10 43 -10 36 -1 132 -38 102 -39
-9 -1 -21 4 -27 10 -32 32 -232 -14 -218 -49 3 -7 1 -10 -4 -7 -12 7 -23 -28
-15 -48 3 -9 13 -14 22 -11 14 5 14 3 -2 -10 -22 -18 -12 -41 12 -27 13 7 24
3 46 -17 21 -20 30 -23 33 -14 3 8 19 29 35 47 22 26 40 36 74 41 29 4 50 2
57 -5 6 -6 20 -11 32 -12 18 0 18 -1 -3 -10 -13 -5 -26 -18 -29 -29 -3 -11 -9
-20 -13 -20 -11 0 -19 -50 -9 -56 5 -3 9 -2 9 3 0 15 144 6 175 -11 17 -9 35
-16 41 -16 14 0 106 -60 121 -80 7 -8 13 -12 13 -7 0 4 22 -16 49 -45 67 -72
123 -184 125 -251 1 -44 6 -57 34 -87 30 -32 33 -39 27 -79 -4 -24 -9 -50 -13
-59 -4 -11 -2 -13 8 -7 9 5 11 4 6 -4 -4 -6 -11 -9 -14 -7 -4 2 -34 -16 -67
-41 -33 -24 -72 -47 -87 -50 -15 -3 -29 -12 -32 -20 -3 -8 -2 -11 3 -8 5 3 13
-4 16 -16 8 -26 -7 -38 -50 -40 -64 -2 -89 4 -127 31 -22 16 -56 34 -76 41
-64 21 -79 48 -81 152 -1 32 -29 37 -54 9 -21 -23 -21 -32 -2 -32 8 0 15 -4
15 -10 0 -5 -4 -10 -10 -10 -5 0 -14 -17 -20 -37 -12 -43 -30 -76 -30 -55 0 7
5 22 10 33 14 25 -1 83 -23 87 -13 3 -17 -4 -17 -25 0 -22 2 -25 10 -13 7 11
8 6 4 -17 -8 -42 3 -119 20 -136 7 -7 17 -24 21 -37 6 -23 3 -22 -27 10 -19
19 -42 52 -52 73 -20 44 -24 124 -5 141 9 8 10 7 6 -7 -4 -11 -3 -16 3 -12 6
3 10 15 10 26 0 26 33 89 59 113 17 16 19 22 8 35 -10 14 -10 14 3 4 20 -15
53 8 49 34 -2 10 3 29 10 41 30 56 -20 107 -76 78 -48 -24 -113 -45 -113 -35
0 5 4 9 8 9 5 0 25 16 45 35 21 20 37 33 37 30 0 -3 20 8 44 26 37 26 54 31
95 31 28 -1 68 -9 88 -17 38 -16 113 -81 113 -98 0 -5 8 -19 18 -32 18 -22 19
-22 30 -4 10 16 9 19 -3 19 -8 0 -15 9 -15 21 0 11 -4 18 -9 15 -5 -3 -15 2
-22 12 -13 15 -12 16 4 3 20 -16 23 -5 5 19 -7 9 4 -2 24 -25 38 -41 46 -61
28 -67 -6 -2 -14 -36 -18 -76 -11 -98 -25 -110 -125 -104 -24 2 -27 6 -24 30
3 22 9 27 30 27 29 1 36 -9 13 -18 -8 -3 -17 -1 -20 6 -2 7 -5 1 -5 -12 -1
-23 1 -23 45 -17 56 7 74 24 74 69 0 46 -10 73 -20 57 -6 -9 -17 -5 -42 14
-35 26 -62 32 -92 20 -9 -3 -16 -11 -16 -16 0 -6 7 -8 15 -4 8 3 15 1 15 -3 0
-14 -28 -21 -32 -9 -13 39 -67 -66 -68 -131 0 -38 5 -48 42 -81 106 -98 257
-70 321 61 35 69 35 129 1 213 -14 36 -32 70 -40 77 -8 6 -14 19 -14 29 0 19
-54 57 -150 106 -42 22 -72 30 -127 32 -68 4 -77 2 -138 -32 l-65 -36 0 25 c0
14 0 28 1 31 3 18 -62 67 -108 80 -68 20 -116 11 -149 -29 -21 -25 -25 -38
-21 -70 5 -40 31 -77 53 -77 7 0 24 14 38 31 16 18 26 25 26 16 0 -10 7 -13
20 -10 15 4 23 -3 36 -30 16 -34 16 -34 -22 -93 -21 -33 -48 -88 -61 -124 -25
-73 -22 -95 31 -232 25 -66 25 -68 6 -68 -31 0 -85 -53 -74 -73 17 -29 80 -65
107 -60 14 3 37 -3 53 -13 24 -14 26 -15 14 -1 -19 20 -100 48 -100 35 0 -6
-13 4 -30 22 -31 33 -40 50 -17 33 6 -6 21 -13 32 -17 20 -6 20 -6 0 11 -11
10 -18 17 -16 16 2 -2 10 2 18 9 7 6 16 8 20 4 3 -3 0 -6 -7 -6 -7 0 -1 -9 13
-20 14 -11 32 -20 40 -20 9 0 18 -9 22 -19 3 -11 17 -26 30 -35 14 -9 25 -22
25 -29 0 -6 22 -21 48 -33 40 -17 50 -19 60 -7 7 7 18 13 24 13 7 0 4 -6 -7
-13 -15 -12 -16 -15 -4 -23 14 -8 19 -9 76 -12 24 -2 31 -6 27 -17 -4 -8 -15
-15 -26 -15 -11 0 -33 -8 -49 -17 -22 -13 -27 -22 -24 -42 4 -22 4 -23 -3 -6
-8 18 -12 15 -33 -25 -12 -25 -22 -48 -22 -51 1 -3 -16 -6 -38 -7 -44 -3 -48
3 -18 29 29 25 31 91 4 119 -11 11 -40 22 -65 26 -37 5 -51 2 -79 -18 -56 -38
-74 -70 -74 -131 0 -40 7 -65 24 -94 13 -21 27 -40 31 -41 4 -2 8 -11 8 -20 1
-10 22 -30 48 -47 45 -28 52 -30 152 -30 97 0 109 2 152 28 55 32 104 90 146
172 47 90 51 95 47 50 -2 -22 -1 -53 3 -69 5 -28 6 -28 20 -10 14 18 14 18 8
-1 -12 -32 -12 -37 -1 -41 16 -6 52 31 105 106 29 42 23 34 110 141 38 48 76
89 85 92 12 5 13 3 4 -12 -9 -13 -7 -26 7 -56 14 -31 20 -35 27 -23 9 13 12
13 29 -4 26 -26 42 -22 56 14 6 17 15 29 18 25 4 -4 1 -13 -6 -22 -7 -8 -9
-15 -4 -15 5 0 24 -23 43 -50 19 -28 36 -50 39 -50 2 0 17 8 32 17 35 20 45
40 60 120 7 35 17 63 21 63 5 0 9 8 9 17 0 14 4 12 25 -7 14 -13 25 -19 25
-15 0 5 7 0 15 -12 42 -60 134 -81 142 -33 5 33 13 38 13 8 0 -33 19 -48 66
-52 60 -6 66 0 59 53 -10 78 -9 125 3 129 7 2 12 10 12 19 0 22 -49 86 -84
111 -17 12 -25 22 -17 22 10 0 11 3 2 14 -9 11 -6 15 14 18 20 4 23 3 14 -8
-9 -11 -4 -11 32 0 75 23 97 34 112 57 14 19 14 25 1 50 -8 16 -23 29 -33 29
-10 0 -22 7 -25 16 -5 14 -4 15 9 4 8 -7 15 -9 15 -4 0 4 -12 18 -27 29 -18
15 -24 26 -17 36 29 48 -4 93 -81 109 l-30 6 29 24 c15 14 42 39 60 56 17 16
61 52 99 78 37 26 67 52 67 57 0 6 4 8 9 5 13 -8 61 51 61 74 0 22 -16 35 -25
20 -3 -5 -12 -10 -18 -10 -7 0 -6 4 3 10 11 8 5 10 -23 8 -46 -3 -71 23 -33
33 33 9 88 41 103 59 7 8 13 11 13 6 0 -5 9 -1 20 9 11 10 17 22 13 28 -3 5
-1 7 4 4 16 -10 41 23 69 94 22 54 25 74 21 134 -5 81 -8 94 -35 157 -28 64
-83 89 -171 79 -71 -9 -106 -35 -120 -90 -22 -89 3 -161 56 -161 37 0 63 18
56 37 -4 11 -3 14 5 9 17 -10 15 -30 -9 -75 -11 -22 -18 -45 -14 -51 3 -6 0
-7 -9 -4 -9 3 -16 1 -16 -5 0 -6 -7 -11 -15 -11 -8 0 -15 5 -15 11 0 5 -4 7
-10 4 -5 -3 -10 -11 -10 -16 0 -6 5 -7 10 -4 6 3 10 0 10 -8 0 -8 -6 -17 -14
-20 -13 -5 -31 -61 -27 -82 2 -6 -2 -6 -8 0 -11 11 5 73 22 86 12 9 -13 57
-40 74 -13 9 -34 39 -48 68 -13 29 -33 63 -44 77 -17 21 -21 23 -26 8 -4 -10
7 -36 30 -68 20 -29 32 -49 26 -46 -17 11 -13 -3 10 -35 13 -19 22 -50 25 -85
2 -31 6 -60 9 -65 4 -5 0 -6 -8 -3 -11 4 -13 -4 -7 -40 12 -81 4 -131 -31
-195 -18 -33 -35 -59 -37 -57 -1 2 11 30 29 62 37 69 38 92 17 263 0 3 0 13 1
21 1 13 2 13 11 0 11 -17 13 -1 4 24 -3 9 -11 13 -17 9 -7 -4 -8 0 -4 11 4 10
0 27 -8 39 -8 12 -15 17 -15 12 -1 -6 -6 -1 -13 10 -12 20 -37 32 -37 17 0 -4
5 -13 12 -20 7 -7 10 -12 6 -12 -10 0 -54 45 -61 63 -3 9 -10 17 -14 16 -31
-5 -42 15 -18 34 6 5 1 7 -11 4 -17 -4 -20 0 -16 19 5 28 23 22 62 -22 22 -24
23 -26 5 -21 -20 7 -20 7 -1 -8 14 -10 23 -12 32 -4 9 7 18 4 33 -12 36 -38
33 -15 -3 27 -23 27 -32 45 -26 54 4 7 4 24 -1 37 -5 13 -8 27 -7 31 3 15 -15
108 -24 122 -7 11 -8 10 -5 -8 3 -12 2 -20 -2 -18 -4 3 -13 -9 -20 -26 -9 -21
-16 -26 -21 -18 -5 8 0 21 11 33 33 35 23 61 -13 33 -36 -27 -43 -111 -12
-137 18 -15 22 -11 27 26 2 17 8 30 13 30 5 0 15 4 22 8 13 9 15 3 6 -30 -4
-13 -10 -20 -15 -17 -14 8 -11 -10 6 -32 20 -26 19 -39 -2 -23 -12 9 -11 5 3
-11 44 -52 35 -53 -16 -2 -30 29 -65 55 -79 59 -34 8 -72 33 -50 33 8 0 20 -4
27 -10 8 -6 7 -5 0 4 -15 16 -63 33 -55 19 4 -5 0 -10 -7 -10 -8 0 -12 6 -9
13 6 17 -53 29 -147 28 -63 0 -89 -6 -166 -37 -75 -31 -95 -36 -117 -28 -22 9
-27 17 -27 43 0 44 12 60 40 56 34 -5 37 35 5 56 -24 16 -46 18 -94 9z m82
-30 c-7 -2 -19 -2 -25 0 -7 3 -2 5 12 5 14 0 19 -2 13 -5z m-80 -38 c-3 -9 -8
-14 -10 -11 -3 3 -2 9 2 15 9 16 15 13 8 -4z m354 -41 c-3 -3 -12 -4 -19 -1
-8 3 -5 6 6 6 11 1 17 -2 13 -5z m745 -41 c56 -53 78 -94 78 -146 0 -50 -11
-97 -21 -91 -5 3 -16 -10 -24 -29 -14 -35 -121 -139 -147 -143 -7 -1 -22 -6
-32 -10 -19 -7 -19 -6 1 22 12 16 43 52 70 81 27 29 47 57 44 64 -2 7 1 9 8 5
7 -5 9 -1 5 9 -4 8 1 26 10 40 9 13 17 37 17 52 2 26 2 25 9 -7 7 -35 7 -35 9
-5 0 17 -11 55 -25 85 -21 45 -22 51 -6 35 10 -12 22 -27 25 -35 5 -13 5 -13
6 0 1 22 -24 50 -48 55 -23 4 -27 -5 -9 -23 7 -7 8 -12 2 -12 -5 0 -14 8 -21
19 -14 23 -63 33 -82 18 -11 -9 -13 -9 -8 -1 4 7 -1 15 -10 18 -15 6 -15 8 -3
16 9 6 10 10 3 10 -16 0 -26 -17 -14 -24 18 -12 -5 -67 -25 -59 -33 13 -3 88
39 96 74 14 97 8 149 -40z m-782 33 c0 -2 -7 -7 -16 -10 -8 -3 -12 -2 -9 4 6
10 25 14 25 6z m120 -12 c0 -2 -24 -3 -52 -3 -48 2 -49 2 -18 8 33 6 70 3 70
-5z m715 6 c3 -5 1 -10 -4 -10 -6 0 -11 5 -11 10 0 6 2 10 4 10 3 0 8 -4 11
-10z m-1185 -21 c5 8 13 3 24 -14 25 -38 5 -55 -23 -19 -11 15 -21 32 -20 38
0 6 3 5 6 -3 4 -10 7 -10 13 -2z m1202 -44 c11 -21 8 -18 -32 30 -24 29 -24
29 -2 10 13 -11 28 -29 34 -40z m-907 35 c-5 -8 56 -16 88 -11 4 0 7 -4 7 -10
0 -8 4 -9 13 0 8 6 16 8 19 5 3 -3 23 2 43 10 42 18 59 13 52 -16 -4 -14 -2
-18 10 -14 37 14 61 17 67 7 4 -6 -1 -11 -11 -11 -10 0 -36 -3 -57 -7 -28 -4
-37 -3 -32 5 4 7 5 12 2 12 -2 0 -13 3 -23 6 -15 5 -16 4 -3 -6 13 -10 11 -11
-7 -7 -13 3 -21 0 -20 -6 3 -16 -38 -21 -60 -8 -14 8 -11 9 15 5 22 -5 32 -3
32 6 0 7 -6 10 -14 7 -8 -3 -29 -2 -47 3 -21 6 -39 6 -52 -2 -12 -6 -36 -12
-54 -13 -18 -1 -39 -8 -48 -15 -8 -7 -15 -8 -15 -2 0 5 21 19 48 30 26 12 43
21 39 22 -9 0 1 20 9 20 3 0 2 -4 -1 -10z m-500 -40 c-10 -11 -20 -18 -23 -15
-7 6 18 35 31 35 5 0 2 -9 -8 -20z m-45 -9 c-5 -11 -10 -35 -11 -53 -1 -30 -2
-31 -8 -8 -8 27 5 80 20 80 6 0 5 -8 -1 -19z m1250 -6 c0 -8 -2 -15 -4 -15 -2
0 -6 7 -10 15 -3 8 -1 15 4 15 6 0 10 -7 10 -15z m67 -7 c7 -6 11 -14 8 -18
-3 -4 2 -11 11 -14 12 -5 15 -16 11 -49 -2 -23 -8 -53 -12 -66 -7 -19 -5 -22
6 -16 8 5 3 -5 -11 -21 -14 -16 -28 -30 -32 -32 -5 -2 -8 -9 -8 -16 0 -13 -33
-56 -43 -56 -3 0 10 32 29 70 19 39 34 86 34 105 0 19 5 35 10 35 20 0 9 29
-24 65 -28 29 -30 35 -13 29 12 -3 28 -11 34 -16z m-799 -13 c-28 -14 -35 -11
-17 8 8 8 20 12 27 9 9 -3 6 -8 -10 -17z m-887 -2 c13 -16 12 -17 -3 -4 -10 7
-18 15 -18 17 0 8 8 3 21 -13z m1216 11 c-3 -3 -12 -4 -19 -1 -8 3 -5 6 6 6
11 1 17 -2 13 -5z m-472 -25 c-10 -15 -25 -10 -19 6 4 8 10 12 15 9 5 -3 7
-10 4 -15z m395 11 c0 -5 -2 -10 -4 -10 -3 0 -8 5 -11 10 -3 6 -1 10 4 10 6 0
11 -4 11 -10z m-155 -10 c-3 -5 -11 -10 -16 -10 -6 0 -7 5 -4 10 3 6 11 10 16
10 6 0 7 -4 4 -10z m115 0 c-8 -5 -19 -10 -25 -10 -5 0 -3 5 5 10 8 5 20 10
25 10 6 0 3 -5 -5 -10z m321 -7 c13 -16 12 -17 -3 -4 -10 7 -18 15 -18 17 0 8
8 3 21 -13z m-724 -7 c25 -9 45 -11 56 -5 10 6 18 5 22 -1 4 -6 3 -10 -2 -9
-4 1 -16 -1 -25 -5 -18 -8 -84 9 -93 25 -8 12 -5 12 42 -5z m199 -11 c-33 -28
-56 -34 -35 -9 11 14 42 31 59 33 3 1 -8 -10 -24 -24z m354 13 c0 -9 -102 -16
-118 -8 -8 4 3 7 24 8 20 1 38 3 40 4 5 6 54 3 54 -4z m497 -25 c-3 -10 -5 -4
-5 12 0 17 2 24 5 18 2 -7 2 -21 0 -30z m-937 7 c-6 -11 -14 -20 -18 -20 -4 0
-15 -12 -24 -27 -10 -16 -18 -23 -18 -18 0 11 58 85 66 85 3 0 0 -9 -6 -20z
m-447 -129 c-6 -10 -11 6 -13 39 -4 62 3 77 9 20 3 -30 5 -57 4 -59z m1492 52
c-10 -40 -17 -20 -9 23 5 24 9 32 12 21 2 -10 1 -30 -3 -44z m-1921 -12 c-2
-3 -12 3 -22 13 -16 17 -16 18 5 5 12 -7 20 -15 17 -18z m31 -21 c3 -5 2 -10
-4 -10 -5 0 -13 5 -16 10 -3 6 -2 10 4 10 5 0 13 -4 16 -10z m1289 -11 c40
-23 50 -45 13 -26 -24 13 -63 47 -53 47 3 0 21 -9 40 -21z m-1251 -9 c3 -11 1
-20 -4 -20 -5 0 -9 2 -9 4 0 2 -3 11 -6 20 -3 9 -2 16 4 16 5 0 12 -9 15 -20z
m1517 -16 c0 -8 -4 -14 -10 -14 -5 0 -10 4 -10 9 0 5 -3 18 -7 28 -6 16 -5 16
10 4 9 -7 17 -20 17 -27z m-90 -42 c0 -2 -4 -1 -9 2 -5 4 -12 0 -15 -6 -3 -7
-4 -4 -1 8 3 12 -1 27 -10 34 -8 7 -15 17 -15 23 0 6 11 -4 25 -23 14 -19 25
-36 25 -38z m-720 27 c0 -16 -4 -28 -9 -25 -8 5 -3 56 5 56 2 0 4 -14 4 -31z
m-649 3 c-13 -2 -27 0 -32 5 -6 6 3 7 23 4 28 -4 29 -6 9 -9z m336 -14 c-3 -7
-5 -2 -5 12 0 14 2 19 5 13 2 -7 2 -19 0 -25z m85 -15 c-8 -27 -19 -57 -23
-68 -7 -18 -8 -18 -8 5 -1 23 33 110 42 110 3 0 -2 -21 -11 -47z m-32 3 c-14
-37 -13 -102 3 -118 6 -7 13 -20 15 -28 1 -8 8 -25 14 -37 6 -13 9 -25 6 -28
-11 -11 -61 120 -60 156 2 40 19 95 28 87 2 -3 0 -17 -6 -32z m-320 14 c8 -5
11 -10 5 -10 -5 0 -17 5 -25 10 -8 5 -10 10 -5 10 6 0 17 -5 25 -10z m237 -12
c-3 -8 -6 -5 -6 6 -1 11 2 17 5 13 3 -3 4 -12 1 -19z m1018 -38 c14 -19 21
-36 16 -38 -5 -2 -7 -11 -4 -20 3 -9 3 -14 -2 -10 -4 4 -9 18 -10 30 -4 42 -5
43 -16 28 -9 -13 -10 -13 -6 0 2 8 -5 26 -17 39 -16 18 -17 22 -4 15 10 -5 29
-25 43 -44z m140 20 c-4 -12 -9 -19 -12 -17 -3 3 -2 15 2 27 4 12 9 19 12 17
3 -3 2 -15 -2 -27z m264 3 c-20 -27 -66 -70 -81 -76 -10 -4 -10 -7 1 -15 8 -6
9 -12 3 -16 -5 -3 -13 1 -16 10 -7 19 69 111 93 113 11 1 11 -2 0 -16z m-1049
-3 c0 -5 -5 -10 -11 -10 -5 0 -7 5 -4 10 3 6 8 10 11 10 2 0 4 -4 4 -10z m-43
-47 c-3 -10 -5 -2 -5 17 0 19 2 27 5 18 2 -10 2 -26 0 -35z m-600 10 c24 8 37
7 45 -1 8 -8 5 -9 -12 -5 -17 4 -21 2 -18 -8 3 -8 12 -13 21 -11 8 1 18 -2 22
-8 4 -7 -3 -9 -22 -5 -57 12 -98 13 -110 3 -10 -8 -12 -7 -7 6 5 13 2 15 -12
10 -17 -6 -17 -5 1 9 12 9 27 12 39 7 11 -4 35 -2 53 3z m658 -3 c3 -6 -1 -7
-9 -4 -18 7 -21 14 -7 14 6 0 13 -4 16 -10z m840 -11 c-4 -5 -16 -14 -28 -20
l-22 -10 22 19 c12 11 19 23 15 27 -4 5 -1 5 6 1 7 -4 10 -12 7 -17z m-845
-19 c0 -5 -4 -12 -10 -15 -5 -3 -10 -4 -10 -1 0 2 -3 12 -6 20 -5 12 -2 15 10
10 9 -3 16 -10 16 -14z m-439 -7 c13 -16 12 -17 -3 -4 -10 7 -18 15 -18 17 0
8 8 3 21 -13z m861 -6 c4 -10 11 -16 15 -14 5 3 9 -7 9 -21 1 -15 -1 -21 -3
-14 -3 6 -8 10 -11 8 -4 -2 -14 11 -23 30 -10 20 -12 32 -5 31 6 -1 14 -10 18
-20z m580 -9 c-7 -7 -12 -8 -12 -2 0 6 3 14 7 17 3 4 9 5 12 2 2 -3 -1 -11 -7
-17z m-1253 -31 c1 -5 -3 -5 -9 -2 -5 3 -10 16 -9 28 0 21 1 21 9 2 5 -11 9
-24 9 -28z m925 28 c3 -8 1 -15 -4 -15 -6 0 -10 7 -10 15 0 8 2 15 4 15 2 0 6
-7 10 -15z m-1054 -27 c0 -7 -4 -7 -13 1 -8 6 -16 9 -19 6 -2 -3 -5 2 -5 9 0
11 5 13 19 5 10 -5 18 -15 18 -21z m354 16 c3 -8 2 -12 -4 -9 -6 3 -10 10 -10
16 0 14 7 11 14 -7z m-782 -8 c7 4 8 2 4 -5 -9 -13 -26 -5 -25 12 0 9 2 8 6
-1 2 -6 10 -9 15 -6z m1708 4 c0 -5 -6 -10 -14 -10 -7 0 -19 -7 -26 -15 -7 -8
-18 -15 -24 -15 -12 1 44 50 57 50 4 0 7 -4 7 -10z m-1230 -20 c0 -5 -2 -10
-4 -10 -3 0 -8 5 -11 10 -3 6 -1 10 4 10 6 0 11 -4 11 -10z m351 -9 c-15 -10
48 -84 65 -77 8 3 13 0 11 -6 -1 -7 7 -12 17 -13 11 0 20 -6 22 -13 1 -7 0 -8
-3 -2 -2 5 -9 10 -14 10 -6 0 -8 -3 -6 -7 6 -10 -14 -28 -33 -29 -9 -1 -16 7
-16 17 0 12 4 15 10 9 6 -6 14 -10 19 -10 6 0 -13 22 -41 50 -47 47 -67 95
-34 83 9 -4 10 -8 3 -12z m669 -48 c0 -50 -33 -141 -60 -164 -14 -12 -16 -19
-8 -27 8 -8 4 -18 -17 -34 -39 -31 -67 -47 -85 -48 -8 0 4 9 28 21 39 20 55
39 31 39 -5 0 -7 5 -3 12 6 9 9 9 12 0 6 -20 21 -14 15 7 -2 10 3 25 12 35 9
9 14 16 11 16 -4 0 5 22 18 49 14 27 22 51 19 55 -4 3 -1 6 7 6 9 0 11 13 8
51 -3 29 -2 45 3 37 5 -7 9 -32 9 -55z m-1435 37 c-3 -5 -12 -10 -18 -10 -7 0
-6 4 3 10 19 12 23 12 15 0z m515 -25 c0 -5 -5 -3 -10 5 -5 8 -10 20 -10 25 0
6 5 3 10 -5 5 -8 10 -19 10 -25z m30 15 c6 -11 8 -20 6 -20 -3 0 -10 9 -16 20
-6 11 -8 20 -6 20 3 0 10 -9 16 -20z m857 -2 c-3 -8 -6 -5 -6 6 -1 11 2 17 5
13 3 -3 4 -12 1 -19z m112 -17 c-6 -18 -13 -30 -15 -28 -2 2 1 18 7 36 6 18
13 30 15 28 2 -2 -1 -18 -7 -36z m-311 4 c-3 -3 -9 2 -12 12 -6 14 -5 15 5 6
7 -7 10 -15 7 -18z m-904 -11 c24 -23 19 -27 -9 -8 -20 13 -25 14 -26 3 0 -10
-2 -10 -5 -2 -4 9 -13 9 -30 2 -35 -13 -42 -11 -20 6 26 20 71 19 90 -1z m469
-23 c23 -39 21 -52 -4 -21 -32 40 -42 60 -26 54 7 -2 21 -18 30 -33z m-214
-31 c11 -22 9 -21 -13 5 -14 17 -25 34 -26 38 0 13 25 -16 39 -43z m834 35
c-3 -9 -8 -14 -10 -11 -3 3 -2 9 2 15 9 16 15 13 8 -4z m-1018 -13 c-3 -3 -11
0 -18 7 -9 10 -8 11 6 5 10 -3 15 -9 12 -12z m76 1 c13 -16 12 -17 -3 -4 -10
7 -18 15 -18 17 0 8 8 3 21 -13z m-188 -8 c1 -5 -5 -11 -14 -13 -9 -2 -16 4
-16 13 0 17 27 17 30 0z m172 -5 c3 -5 2 -10 -4 -10 -5 0 -13 5 -16 10 -3 6
-2 10 4 10 5 0 13 -4 16 -10z m181 -28 c40 -49 54 -74 23 -42 -50 52 -72 80
-63 80 5 0 23 -17 40 -38z m-126 7 c0 -6 -4 -7 -10 -4 -5 3 -10 11 -10 16 0 6
5 7 10 4 6 -3 10 -11 10 -16z m49 -23 c-2 -2 -13 8 -23 22 l-19 27 24 -22 c12
-12 21 -24 18 -27z m231 19 c14 -19 14 -19 -2 -6 -10 7 -18 18 -18 24 0 6 1 8
3 6 1 -2 9 -13 17 -24z m260 10 c-14 -17 -95 -21 -105 -5 -4 7 7 8 33 4 23 -3
48 -2 58 5 26 14 29 14 14 -4z m526 -33 c-8 -15 -22 -34 -30 -41 -9 -8 -16
-18 -16 -23 0 -7 5 -6 13 1 8 6 17 8 20 4 4 -3 7 0 7 9 0 8 7 15 15 15 8 0 15
-4 15 -9 0 -5 6 -6 13 -2 6 4 9 4 5 0 -3 -4 -9 -7 -13 -6 -4 1 -21 -11 -38
-27 -17 -15 -25 -20 -18 -10 12 15 11 17 -10 13 -13 -3 -26 -5 -29 -5 -3 -1 1
-5 7 -9 10 -7 10 -12 0 -26 -12 -16 -13 -15 -12 8 0 26 77 161 83 145 2 -4 -4
-21 -12 -37z m43 1 c-13 -15 -17 -23 -9 -17 8 6 33 14 55 17 l40 6 -30 -16
c-16 -9 -33 -21 -37 -27 -6 -8 -8 -8 -8 0 0 6 -11 10 -25 9 -32 -4 -31 3 1 38
33 36 46 26 13 -10z m-616 -4 c26 -1 27 -3 8 -6 -31 -6 -91 5 -91 17 0 6 10 6
26 0 14 -6 40 -11 57 -11z m-458 -9 c10 -11 16 -22 14 -24 -2 -3 -14 6 -26 20
-12 13 -18 24 -14 24 4 0 16 -9 26 -20z m420 -8 c28 -5 40 -10 27 -11 -39 -2
-115 21 -101 30 8 4 16 4 19 -1 3 -5 28 -13 55 -18z m516 -20 c-11 -23 -25
-43 -30 -46 -5 -3 3 16 18 43 31 59 42 61 12 3z m45 16 c-18 -26 -22 -17 -5
14 6 11 13 17 16 15 3 -3 -2 -16 -11 -29z m-471 -16 c-3 -3 -11 0 -18 7 -9 10
-8 11 6 5 10 -3 15 -9 12 -12z m275 -27 c-19 -36 -31 -31 -13 6 8 16 18 28 21
25 3 -3 -1 -17 -8 -31z m-1371 11 c-11 -9 -69 -15 -64 -6 3 6 20 10 37 10 17
0 29 -2 27 -4z m69 -21 c-3 -3 -9 2 -12 12 -6 14 -5 15 5 6 7 -7 10 -15 7 -18z
m1432 -29 c0 -3 -15 -15 -32 -27 l-33 -23 24 27 c22 24 41 35 41 23z m-145
-16 c-10 -16 -65 -52 -65 -42 0 6 15 19 33 30 38 24 40 25 32 12z m-1005 -14
c0 -2 -7 -7 -16 -10 -8 -3 -12 -2 -9 4 6 10 25 14 25 6z m130 -33 c42 -28 50
-29 50 -3 0 26 9 25 46 -8 34 -30 78 -92 55 -78 -9 6 -12 5 -9 -5 3 -8 10 -13
15 -12 12 2 14 -19 17 -122 1 -71 -16 -115 -61 -161 -9 -8 -12 -18 -9 -22 4
-3 23 11 42 33 19 22 31 31 25 20 -15 -32 -85 -95 -105 -95 -6 0 -4 5 4 10 11
7 4 10 -27 10 -27 0 -50 7 -61 18 -49 47 -81 70 -87 64 -4 -4 -2 3 4 16 6 12
16 22 20 22 11 0 9 33 -2 41 -5 3 3 19 17 34 14 15 26 32 26 36 0 16 37 9 64
-12 22 -17 24 -24 15 -42 -9 -21 -9 -21 10 2 l21 23 0 -26 c0 -24 -3 -26 -46
-26 -38 0 -45 3 -40 16 5 12 0 11 -22 -5 -23 -16 -28 -27 -27 -55 0 -23 8 -41
20 -50 26 -19 97 -28 110 -14 7 8 5 9 -7 5 -10 -4 -28 -2 -40 3 -21 8 -20 9 7
8 17 -1 36 1 43 6 7 4 12 3 12 -2 0 -5 7 -9 15 -9 8 0 12 4 9 8 -2 4 0 10 5
13 12 8 51 84 50 99 0 7 -4 3 -9 -8 -7 -17 -9 -14 -9 13 -1 20 3 31 9 27 15
-9 12 32 -5 66 -9 16 -13 35 -9 41 4 6 3 8 -4 4 -6 -3 -20 7 -31 23 -21 29
-121 98 -121 83 0 -4 -5 1 -11 11 -5 9 -16 17 -24 17 -8 0 -16 4 -19 9 -10 15
37 -1 74 -26z m505 27 c-3 -5 -14 -10 -23 -9 -14 0 -13 2 3 9 27 11 27 11 20
0z m-718 -6 c-3 -3 -12 -4 -19 -1 -8 3 -5 6 6 6 11 1 17 -2 13 -5z m113 -4 c0
-5 -10 -10 -22 -10 -19 0 -20 2 -8 10 19 13 30 13 30 0z m140 -12 c0 -5 -9 -4
-20 2 -11 6 -20 12 -20 14 0 2 9 2 20 -1 11 -3 20 -9 20 -15z m-100 -9 c0 -4
-7 -6 -15 -3 -8 4 -15 10 -15 15 0 4 7 6 15 3 8 -4 15 -10 15 -15z m-283 -41
c-3 -7 -5 -2 -5 12 0 14 2 19 5 13 2 -7 2 -19 0 -25z m863 -18 c1 15 4 19 7 9
6 -24 -58 -129 -79 -129 -5 0 3 12 17 27 14 15 26 35 26 43 1 8 2 20 4 25 1 6
3 26 5 45 l3 35 7 -40 c5 -30 8 -34 10 -15z m257 44 c-3 -3 -12 -4 -19 -1 -8
3 -5 6 6 6 11 1 17 -2 13 -5z m-426 -47 c20 -19 25 -37 10 -37 -5 0 -11 9 -14
21 -3 12 -10 18 -16 14 -7 -4 -11 4 -10 22 0 16 3 21 6 13 3 -8 14 -23 24 -33z
m51 31 c-9 -9 -15 -9 -24 0 -9 9 -7 12 12 12 19 0 21 -3 12 -12z m72 -66 c-6
-10 -52 -7 -62 5 -15 16 -12 16 22 3 25 -9 26 -8 27 33 l2 42 6 -40 c4 -22 6
-41 5 -43z m-449 48 c3 -5 1 -10 -4 -10 -6 0 -11 5 -11 10 0 6 2 10 4 10 3 0
8 -4 11 -10z m732 4 c-3 -3 -12 -4 -19 -1 -8 3 -5 6 6 6 11 1 17 -2 13 -5z
m103 2 c0 -2 -7 -7 -16 -10 -8 -3 -12 -2 -9 4 6 10 25 14 25 6z m-470 -26 c0
-5 -2 -10 -4 -10 -3 0 -8 5 -11 10 -3 6 -1 10 4 10 6 0 11 -4 11 -10z m-75
-20 c3 -6 -1 -7 -9 -4 -18 7 -21 14 -7 14 6 0 13 -4 16 -10z m265 -25 c-5 -6
-7 -15 -3 -18 3 -4 2 -7 -4 -7 -6 0 -10 -8 -8 -17 1 -10 0 -12 -2 -5 -6 16
-23 16 -23 -1 0 -8 -12 -19 -26 -26 l-26 -12 26 31 c14 18 26 39 27 48 0 14 2
13 9 -3 l9 -20 1 20 c2 11 2 23 1 27 0 4 6 5 14 1 11 -4 13 -9 5 -18z m-959
-18 c-6 -6 -11 -19 -11 -29 0 -10 -3 -18 -8 -18 -12 0 -44 -82 -47 -123 -2
-22 -6 -41 -9 -44 -9 -9 -4 101 5 113 5 6 10 20 12 31 1 11 15 35 30 52 15 18
27 38 28 44 0 8 3 7 6 -1 3 -8 0 -19 -6 -25z m726 4 c3 -11 15 -22 26 -25 32
-8 39 -7 31 6 -4 6 -3 8 4 4 5 -3 12 -1 14 6 3 9 6 9 11 0 5 -6 -2 -18 -16
-27 -21 -14 -27 -14 -54 0 -29 15 -52 55 -31 55 5 0 12 -9 15 -19z m563 15 c0
-9 -40 -13 -46 -5 -3 5 6 9 20 9 14 0 26 -2 26 -4z m-525 -24 c-3 -3 -11 0
-18 7 -9 10 -8 11 6 5 10 -3 15 -9 12 -12z m453 11 c-10 -2 -28 -2 -40 0 -13
2 -5 4 17 4 22 1 32 -1 23 -4z m-1144 -35 c-10 -13 -28 -32 -40 -43 -31 -29
-64 -99 -54 -114 5 -10 10 -4 15 17 3 17 20 48 37 69 16 21 34 45 38 53 5 8
12 11 16 7 4 -4 -2 -17 -14 -30 -12 -13 -22 -30 -22 -38 0 -8 -7 -27 -15 -43
-16 -30 -16 -30 5 -11 31 28 23 5 -11 -35 -29 -32 -31 -33 -25 -10 5 21 4 20
-9 -5 -8 -16 -14 -24 -15 -17 0 7 -4 11 -9 8 -5 -4 -7 4 -4 16 4 18 2 20 -6 8
-7 -10 -10 -3 -9 30 1 25 3 37 6 27 5 -22 22 -12 22 13 0 10 22 41 50 69 50
52 79 70 44 29z m1258 3 c18 2 38 0 45 -4 6 -4 14 -2 16 3 3 6 4 5 3 -2 -2 -8
-14 -12 -32 -10 -40 5 -26 -5 22 -17 31 -7 15 -9 -84 -10 -80 -1 -121 3 -117
9 3 6 21 10 39 10 20 0 39 7 47 18 11 14 11 15 -1 5 -16 -15 -60 -17 -60 -4 0
13 62 19 77 8 7 -5 27 -7 45 -6z m-1410 -46 c-8 -30 -18 -52 -22 -50 -9 6 -2
53 12 83 20 40 26 23 10 -33z m1278 41 c0 -2 -13 -6 -29 -8 -17 -2 -28 -1 -25
4 5 8 54 12 54 4z m-1047 -23 c-7 -2 -19 -2 -25 0 -7 3 -2 5 12 5 14 0 19 -2
13 -5z m703 -30 c-3 -17 -62 -40 -74 -29 -3 3 9 9 26 12 17 3 33 12 36 20 7
19 15 17 12 -3z m274 7 c0 -5 -2 -10 -4 -10 -3 0 -8 5 -11 10 -3 6 -1 10 4 10
6 0 11 -4 11 -10z m150 -7 c52 -2 98 -7 102 -11 4 -4 -24 -6 -62 -4 -38 1 -71
-2 -75 -8 -4 -6 -17 -5 -35 5 -16 8 -36 15 -45 15 -8 0 -15 5 -15 11 0 7 7 8
18 4 9 -4 60 -9 112 -12z m-1150 2 c0 -2 -9 -9 -20 -15 -12 -6 -20 -7 -20 -1
0 5 8 12 18 14 9 3 18 5 20 6 1 0 2 -1 2 -4z m373 -99 c-5 -9 -7 6 -6 37 2 72
6 81 10 25 2 -26 0 -54 -4 -62z m932 94 c-3 -5 -14 -10 -23 -9 -14 0 -13 2 3
9 27 11 27 11 20 0z m-258 -26 c-3 -3 -12 -4 -19 -1 -8 3 -5 6 6 6 11 1 17 -2
13 -5z m280 0 c-3 -3 -12 -4 -19 -1 -8 3 -5 6 6 6 11 1 17 -2 13 -5z m-707
-20 c0 -2 -7 -4 -15 -4 -8 0 -15 4 -15 10 0 5 7 7 15 4 8 -4 15 -8 15 -10z
m600 -1 c2 -2 -14 -3 -36 -2 -22 2 -44 0 -50 -3 -5 -4 -25 -2 -44 3 l-35 9 36
-4 c20 -2 42 0 49 4 13 8 68 3 80 -7z m67 1 c-3 -3 -12 -4 -19 -1 -8 3 -5 6 6
6 11 1 17 -2 13 -5z m-235 -18 c25 -2 50 -6 54 -8 5 -3 21 -8 37 -12 15 -3 27
-11 27 -16 0 -5 6 -7 13 -4 8 3 20 -2 27 -11 11 -13 7 -15 -31 -17 -78 -4
-105 1 -163 26 -31 14 -56 27 -56 30 0 6 40 -8 73 -26 31 -16 87 -27 87 -17 0
5 -3 9 -7 10 -29 3 -54 11 -98 34 -27 14 -41 23 -29 20 11 -3 41 -7 66 -9z
m-1109 -31 c-15 -19 -29 -32 -32 -29 -4 4 48 64 56 64 2 0 -9 -16 -24 -35z
m1280 13 c9 -5 16 -16 16 -26 -1 -16 -2 -16 -6 1 -2 9 -10 17 -16 18 -42 3
-59 7 -70 18 -9 9 -3 10 23 5 19 -4 43 -11 53 -16z m162 2 c3 -5 1 -10 -4 -10
-6 0 -11 5 -11 10 0 6 2 10 4 10 3 0 8 -4 11 -10z m-410 -70 c-3 -5 10 -26 29
-45 20 -19 32 -35 28 -35 -5 0 -26 18 -47 40 -22 22 -33 40 -25 40 9 0 8 5 -6
16 -18 14 -18 15 4 4 12 -6 20 -15 17 -20z m60 12 c-3 -3 -11 0 -18 7 -9 10
-8 11 6 5 10 -3 15 -9 12 -12z m-1206 -39 c-5 -13 -4 -25 1 -28 6 -4 11 4 11
17 1 18 2 19 6 5 6 -24 -5 -67 -17 -67 -5 0 -7 6 -4 13 3 8 -2 20 -11 27 -16
13 -19 37 -9 64 5 12 9 13 19 3 8 -8 10 -19 4 -34z m1082 -65 c18 -25 18 -28
3 -36 -15 -8 -15 -17 -5 -73 7 -42 8 -74 2 -94 -8 -26 -9 -22 -10 32 -1 76
-15 91 -18 20 -3 -86 -5 -97 -13 -97 -10 0 -17 43 -26 155 -4 44 -13 91 -21
105 l-14 25 6 -25 c3 -14 8 -38 11 -55 4 -30 4 -30 -7 -5 -14 30 -20 132 -8
124 5 -3 9 -14 9 -24 0 -10 5 -22 12 -26 8 -5 9 -2 5 9 -3 10 -3 17 1 17 4 0
17 -33 30 -72 14 -46 21 -60 18 -38 -1 19 -6 44 -10 55 -5 13 -2 11 8 -5 17
-28 22 -19 5 11 -5 11 -15 16 -21 13 -7 -5 -8 -2 -3 5 4 8 -2 26 -14 44 -21
30 -21 30 9 -3 17 -19 40 -47 51 -62z m134 62 c24 -19 41 -27 45 -20 4 7 13 5
26 -7 11 -10 14 -14 7 -9 -8 5 -16 6 -19 4 -8 -8 47 -49 57 -42 5 3 9 0 9 -5
0 -6 6 -11 14 -11 20 0 31 -19 18 -32 -8 -8 -21 -2 -45 18 -66 56 -75 62 -83
56 -4 -4 -4 -1 0 6 4 6 2 12 -5 12 -6 0 -27 14 -46 30 -44 39 -27 39 22 0z
m162 24 c-3 -3 -12 -4 -19 -1 -8 3 -5 6 6 6 11 1 17 -2 13 -5z m-262 -24 c10
-11 16 -20 13 -20 -3 0 -13 9 -23 20 -10 11 -16 20 -13 20 3 0 13 -9 23 -20z
m260 -59 c-5 -5 -95 52 -95 61 0 3 22 -8 49 -25 27 -18 48 -34 46 -36z m-458
27 c-3 -7 -5 -2 -5 12 0 14 2 19 5 13 2 -7 2 -19 0 -25z m-939 -43 c2 -16 1
-28 -2 -25 -2 3 -6 17 -8 32 -2 15 -7 30 -11 34 -4 4 -7 12 -7 18 1 21 24 -29
28 -59z m84 23 c-6 -6 -7 0 -4 19 5 21 7 23 10 9 2 -10 0 -22 -6 -28z m1177
-53 c31 -27 58 -53 59 -58 2 -4 17 -21 34 -37 16 -17 25 -30 19 -30 -5 0 -23
16 -39 36 -23 27 -34 34 -46 27 -14 -8 -13 -12 7 -41 30 -43 44 -41 17 3 -30
48 -19 44 13 -4 21 -32 23 -40 11 -45 -14 -5 -74 47 -74 65 0 4 -7 15 -16 23
-24 24 -13 38 18 22 23 -12 26 -12 21 0 -3 8 -8 14 -12 14 -4 0 -21 13 -37 30
-28 28 -52 41 -39 20 3 -5 -1 -10 -11 -10 -13 0 -14 3 -5 14 9 10 8 16 -4 26
-8 7 -15 16 -15 21 0 10 23 -7 99 -76z m-1000 13 c-1 -63 11 -110 30 -123 6
-3 11 -15 11 -25 0 -11 9 -24 20 -30 11 -6 18 -15 15 -20 -9 -14 -57 21 -51
36 3 8 1 14 -4 14 -5 0 -14 16 -21 35 -8 22 -18 34 -26 31 -9 -4 -13 7 -13 40
0 37 3 45 15 40 12 -4 15 3 15 29 0 19 2 35 5 35 2 0 4 -28 4 -62z m720 7 c1
-17 -1 -17 -9 -5 -5 8 -9 26 -9 40 0 23 1 23 9 5 5 -11 9 -29 9 -40z m-38 10
c5 4 9 1 9 -4 0 -6 -4 -11 -10 -11 -5 0 -10 -9 -10 -21 0 -15 5 -19 15 -15 12
4 15 -3 15 -34 0 -21 -4 -41 -9 -44 -5 -3 -12 -27 -16 -53 -4 -27 -12 -54 -18
-62 -10 -12 -9 -14 6 -8 15 6 16 4 7 -14 -17 -32 -26 -15 -28 53 0 36 2 57 7
49 5 -7 7 10 5 41 -3 51 -2 51 6 13 6 -30 8 -17 5 50 -2 50 -1 82 1 72 3 -9
10 -15 15 -12z m-34 -17 c-3 -8 -6 -5 -6 6 -1 11 2 17 5 13 3 -3 4 -12 1 -19z
m445 -35 c16 -15 31 -22 39 -18 8 5 10 4 5 -3 -4 -7 -2 -12 5 -12 7 0 10 -3 6
-6 -8 -8 -77 35 -77 47 0 6 -4 8 -9 5 -4 -3 -19 7 -32 21 l-24 27 30 -18 c17
-10 42 -30 57 -43z m-554 11 c-7 -15 -14 -21 -16 -15 -2 7 2 18 8 26 18 22 21
18 8 -11z m52 -9 c-6 -15 -26 -43 -45 -62 -19 -19 -35 -41 -35 -49 0 -8 -4
-14 -8 -14 -4 0 -31 -23 -60 -50 -39 -39 -50 -46 -47 -29 4 21 21 38 58 60 10
5 15 14 12 20 -6 8 8 13 28 10 4 0 7 5 7 12 0 7 18 32 39 55 22 23 43 52 46
63 4 11 9 19 11 16 3 -2 0 -17 -6 -32z m357 2 c-2 -6 7 -23 19 -36 13 -14 21
-28 18 -31 -9 -8 -55 50 -49 61 4 5 1 9 -5 9 -6 0 -8 5 -5 10 8 13 27 2 22
-13z m-220 -19 c-3 -7 -5 -2 -5 12 0 14 2 19 5 13 2 -7 2 -19 0 -25z m127 16
c3 -8 2 -12 -4 -9 -6 3 -10 10 -10 16 0 14 7 11 14 -7z m337 -11 c13 -15 12
-15 -8 -4 -24 12 -29 21 -14 21 5 0 15 -7 22 -17z m-267 -32 c-3 -3 -9 1 -15
9 -6 10 -8 1 -4 -30 l5 -45 -11 38 c-6 20 -8 45 -4 55 6 16 7 16 21 -2 7 -11
11 -22 8 -25z m-985 17 c0 -7 2 -24 6 -36 6 -18 10 -21 17 -10 7 9 8 8 4 -6
-4 -10 -1 -25 5 -32 6 -8 8 -14 3 -14 -4 0 3 -12 17 -26 21 -24 22 -26 3 -16
-20 11 -42 32 -43 42 0 10 -13 45 -22 62 -5 10 -6 24 -3 33 7 18 15 20 13 3z
m-165 -14 c11 -30 1 -33 -30 -9 -18 15 -18 15 0 8 13 -4 17 -3 12 5 -4 7 -3
12 2 12 6 0 13 -7 16 -16z m736 6 c0 -11 -65 -80 -75 -80 -6 0 64 86 73 89 1
1 2 -3 2 -9z m249 -32 l-1 -43 -8 35 c-8 32 -6 50 6 50 2 0 4 -19 3 -42z m98
20 c-3 -8 -6 -5 -6 6 -1 11 2 17 5 13 3 -3 4 -12 1 -19z m-119 -68 c-1 -22 -5
-45 -9 -52 -4 -6 -6 13 -4 43 2 29 1 46 -1 37 -3 -10 -9 -18 -13 -18 -5 0 -3
16 3 35 9 30 12 32 18 14 4 -11 7 -38 6 -59z m432 4 l55 -57 -45 34 c-25 19
-47 37 -49 42 -1 4 -15 20 -30 34 -18 18 -20 22 -6 14 11 -6 45 -36 75 -67z
m-1084 31 c3 -22 -13 -9 -19 16 -4 16 -3 19 5 11 7 -7 13 -19 14 -27z m539
-50 c-11 -44 -12 -62 -3 -72 8 -11 7 -12 -6 -7 -9 3 -16 10 -16 16 0 21 34
142 37 132 2 -6 -3 -37 -12 -69z m-792 31 c4 4 1 14 -6 22 -11 13 -9 14 11 1
12 -8 25 -24 29 -37 3 -12 14 -27 24 -33 11 -5 19 -14 19 -20 0 -6 -14 0 -31
13 -53 40 -79 67 -79 80 1 7 6 3 13 -10 7 -12 16 -20 20 -16z m771 0 c-3 -15
-8 -25 -11 -23 -2 3 -1 17 3 31 3 15 8 25 11 23 2 -3 1 -17 -3 -31z m406 -19
c0 -20 -25 1 -28 24 -2 23 -2 23 13 5 8 -11 15 -24 15 -29z m-880 -17 c0 -14
-28 -1 -34 16 -4 12 -2 12 14 4 11 -6 20 -15 20 -20z m990 -1 c0 -6 -4 -7 -10
-4 -5 3 -10 11 -10 16 0 6 5 7 10 4 6 -3 10 -11 10 -16z m-765 -3 c-11 -7 -31
-17 -45 -21 -23 -7 -23 -7 -7 9 9 10 21 15 26 11 5 -3 12 -1 16 5 3 5 11 10
18 10 6 0 3 -6 -8 -14z m830 -23 c33 -30 34 -33 10 -18 -33 20 -70 55 -58 55
4 -1 26 -17 48 -37z m-88 10 c3 -7 -4 -9 -16 -6 -12 3 -18 9 -15 15 7 11 26 6
31 -9z m-932 -3 c3 -5 2 -10 -4 -10 -5 0 -13 5 -16 10 -3 6 -2 10 4 10 5 0 13
-4 16 -10z m539 -15 c-4 -8 -8 -15 -10 -15 -2 0 -4 7 -4 15 0 8 4 15 10 15 5
0 7 -7 4 -15z m-440 -9 c-5 -13 -54 -36 -76 -36 -20 0 4 19 32 25 17 4 30 11
30 16 0 5 4 9 10 9 5 0 7 -6 4 -14z m811 4 c3 -5 1 -10 -4 -10 -6 0 -11 5 -11
10 0 6 2 10 4 10 3 0 8 -4 11 -10z m-1005 -20 c8 -5 11 -10 5 -10 -5 0 -17 5
-25 10 -8 5 -10 10 -5 10 6 0 17 -5 25 -10z m397 -7 c0 -10 -10 -30 -24 -44
-13 -14 -23 -30 -21 -35 3 -13 -22 -57 -29 -50 -4 3 1 14 10 24 9 10 13 23 8
30 -5 9 -16 2 -34 -26 -27 -38 -36 -69 -17 -57 15 9 12 -9 -6 -31 -15 -19 -15
-19 -10 1 3 11 1 27 -4 35 -5 8 -10 12 -10 8 0 -19 -2 -24 -17 -40 -13 -15
-13 -20 -3 -33 7 -9 10 -18 6 -22 -3 -3 -6 -1 -6 6 0 7 -4 9 -10 6 -19 -12
-10 63 11 102 l22 38 -26 -30 c-16 -19 -26 -42 -27 -62 0 -23 -5 -33 -16 -33
-9 0 -12 5 -8 12 4 6 8 21 10 33 3 29 72 125 87 122 7 -1 11 6 9 15 -1 9 1 19
6 22 15 9 7 -30 -11 -58 -10 -14 -15 -26 -11 -26 4 0 1 -7 -6 -15 -7 -9 -10
-18 -7 -21 5 -5 51 50 100 120 21 30 34 33 34 9z m-452 -11 c-3 -3 -11 0 -18
7 -9 10 -8 11 6 5 10 -3 15 -9 12 -12z m48 -9 c-7 -2 -19 -2 -25 0 -7 3 -2 5
12 5 14 0 19 -2 13 -5z m738 -44 c-5 -13 -10 -19 -10 -12 -1 15 10 45 15 40 3
-2 0 -15 -5 -28z m-697 13 c2 -4 -4 -9 -15 -9 -11 -1 -17 2 -14 8 7 11 22 12
29 1z m122 -7 c-1 -8 -6 -18 -11 -22 -4 -4 -5 -2 0 6 5 9 3 12 -6 9 -8 -3 -14
-11 -14 -19 0 -8 -8 -32 -18 -53 -13 -29 -20 -37 -28 -29 -8 8 -4 19 15 40 27
29 33 43 16 43 -21 0 -9 19 18 28 15 6 28 11 29 11 1 1 0 -6 -1 -14z m-421
-24 c14 -1 16 -4 7 -13 -6 -6 -19 -12 -29 -13 -10 0 -25 -5 -32 -10 -11 -6
-13 -3 -9 13 4 12 2 20 -3 16 -5 -3 -9 -10 -9 -16 0 -5 -9 -21 -20 -35 -11
-14 -20 -33 -20 -42 1 -9 10 1 21 22 19 36 21 38 34 20 8 -10 14 -22 14 -28 0
-5 -4 -2 -10 9 -9 15 -13 16 -20 5 -17 -27 -9 -58 24 -92 45 -49 91 -69 151
-68 103 2 142 13 149 42 5 18 2 20 -21 15 -24 -6 -25 -5 -7 5 11 6 36 28 55
48 19 21 27 28 18 16 -10 -12 -18 -26 -18 -32 0 -6 -6 -13 -12 -16 -9 -3 -10
-8 -3 -13 6 -5 9 -8 8 -6 -1 2 9 14 22 27 14 12 22 24 20 27 -3 2 2 5 10 5 8
0 15 -3 15 -5 0 -14 -53 -72 -66 -72 -7 0 -14 -9 -14 -20 0 -11 -7 -20 -16
-20 -8 0 -13 -4 -9 -10 3 -5 -7 -15 -22 -23 -33 -16 -143 -23 -143 -9 0 10
-44 28 -90 37 -27 5 -36 12 -26 22 4 4 11 1 16 -7 6 -8 10 -11 10 -5 0 10 -61
65 -73 65 -4 0 -1 -12 6 -27 8 -16 12 -34 10 -40 -3 -8 4 -13 15 -13 24 0 49
-27 36 -40 -15 -15 -64 31 -70 64 -3 16 -10 38 -15 48 -14 26 -14 97 0 111 14
14 15 40 1 32 -5 -3 -10 -4 -10 -1 0 10 64 32 85 30 11 -1 29 -3 40 -3z m335
0 c0 -5 -10 -11 -22 -14 -22 -6 -22 -6 -4 8 23 17 26 18 26 6z m657 -30 c-5
-2 -13 3 -18 10 -15 24 -10 30 9 12 10 -10 14 -20 9 -22z m46 24 c-3 -9 -8
-14 -10 -11 -3 3 -2 9 2 15 9 16 15 13 8 -4z m-708 -27 c-11 -6 -29 -20 -40
-31 -20 -18 -88 -57 -101 -57 -3 0 -1 7 6 15 7 8 16 13 20 10 4 -3 19 6 33 19
40 37 70 56 87 56 11 -1 10 -4 -5 -12z m-80 -8 c-3 -5 -11 -10 -16 -10 -6 0
-7 5 -4 10 3 6 11 10 16 10 6 0 7 -4 4 -10z m-17 -21 c10 -1 4 -4 -13 -8 -37
-9 -42 -6 -24 15 8 10 15 12 17 5 2 -6 11 -12 20 -12z m153 -12 c-10 -9 -11
-8 -5 6 3 10 9 15 12 12 3 -3 0 -11 -7 -18z m-249 -86 c-5 -14 -3 -14 10 -3
10 8 19 9 22 3 4 -5 -2 -11 -11 -13 -28 -6 -73 3 -73 14 0 6 7 8 15 4 8 -3 15
-2 15 3 0 4 6 8 14 8 9 0 12 -6 8 -16z m78 9 c0 -5 -8 -10 -17 -10 -15 0 -16
2 -3 10 19 12 20 12 20 0z m120 -14 c0 -2 -8 -10 -17 -17 -16 -13 -17 -12 -4
4 13 16 21 21 21 13z m-155 -26 c-11 -5 -36 -8 -55 -8 l-35 1 35 7 c19 4 44 8
55 8 l20 1 -20 -9z m45 -10 c-8 -5 -19 -10 -25 -10 -5 0 -3 5 5 10 8 5 20 10
25 10 6 0 3 -5 -5 -10z m50 -45 c0 -2 -10 -9 -22 -15 -22 -11 -22 -10 -4 4 21
17 26 19 26 11z"/>
<path d="M1901 1961 c-7 -5 -9 -11 -4 -14 5 -3 15 -2 22 2 7 5 9 11 4 14 -5 3
-15 2 -22 -2z"/>
<path d="M1766 1925 c-3 -8 -1 -15 4 -15 6 0 10 7 10 15 0 8 -2 15 -4 15 -2 0
-6 -7 -10 -15z"/>
<path d="M2001 1814 c0 -11 3 -14 6 -6 3 7 2 16 -1 19 -3 4 -6 -2 -5 -13z"/>
<path d="M1970 1750 c0 -5 -5 -9 -11 -7 -6 1 -14 -5 -16 -13 -4 -13 -3 -13 6
0 17 23 14 -13 -4 -56 -8 -19 -10 -32 -4 -28 18 11 49 114 35 114 -3 0 -6 -4
-6 -10z"/>
<path d="M820 1941 c0 -5 7 -15 17 -22 15 -13 15 -12 4 9 -12 23 -21 28 -21
13z"/>
<path d="M677 1163 c-4 -3 3 -17 15 -30 22 -24 45 -32 32 -11 -4 7 -3 8 4 4 6
-4 9 -13 5 -21 -5 -15 12 -21 21 -7 7 12 -22 45 -34 37 -7 -4 -14 2 -17 14 -5
21 -14 26 -26 14z"/>
<path d="M633 944 c0 -16 13 -19 21 -5 3 5 0 11 -7 14 -8 3 -14 -1 -14 -9z"/>
<path d="M625 765 c23 -8 85 -10 85 -3 0 4 -21 8 -47 7 -27 0 -43 -2 -38 -4z"/>
<path d="M1480 866 c0 -2 7 -7 16 -10 8 -3 12 -2 9 4 -6 10 -25 14 -25 6z"/>
<path d="M182 790 c0 -14 2 -19 5 -12 2 6 2 18 0 25 -3 6 -5 1 -5 -13z"/>
<path d="M1226 637 c3 -10 9 -15 12 -12 3 3 0 11 -7 18 -10 9 -11 8 -5 -6z"/>
<path d="M1550 670 c0 -5 5 -10 11 -10 5 0 7 5 4 10 -3 6 -8 10 -11 10 -2 0
-4 -4 -4 -10z"/>
<path d="M410 659 c0 -11 4 -18 10 -14 5 3 7 12 3 20 -7 21 -13 19 -13 -6z"/>
<path d="M1121 614 c0 -11 3 -14 6 -6 3 7 2 16 -1 19 -3 4 -6 -2 -5 -13z"/>
<path d="M280 551 c0 -6 4 -13 10 -16 6 -3 7 1 4 9 -7 18 -14 21 -14 7z"/>
<path d="M875 430 c-10 -11 -13 -20 -8 -20 13 0 38 29 31 35 -3 3 -13 -4 -23
-15z"/>
<path d="M224 1913 c2 -9 12 -20 24 -24 29 -11 27 2 -2 23 -22 16 -24 16 -22
1z"/>
<path d="M255 1840 c-3 -5 1 -10 9 -10 9 0 16 5 16 10 0 6 -4 10 -9 10 -6 0
-13 -4 -16 -10z"/>
<path d="M442 1810 c0 -14 2 -19 5 -12 2 6 2 18 0 25 -3 6 -5 1 -5 -13z"/>
<path d="M285 1750 c3 -5 11 -10 16 -10 6 0 7 5 4 10 -3 6 -11 10 -16 10 -6 0
-7 -4 -4 -10z"/>
<path d="M1210 1559 c0 -5 5 -7 10 -4 6 3 10 8 10 11 0 2 -4 4 -10 4 -5 0 -10
-5 -10 -11z"/>
<path d="M1170 1504 c0 -8 5 -12 10 -9 6 4 8 11 5 16 -9 14 -15 11 -15 -7z"/>
<path d="M1233 1503 c15 -16 15 -18 0 -35 -9 -10 -11 -18 -5 -18 20 0 35 39
21 56 -6 8 -16 14 -22 14 -6 0 -4 -8 6 -17z"/>
<path d="M1210 1481 c-8 -6 -18 -7 -23 -4 -5 3 -8 0 -5 -7 7 -22 22 -22 36 0
14 22 13 24 -8 11z"/>
<path d="M166 1181 c-3 -4 3 -16 14 -26 11 -10 20 -13 20 -8 0 6 -7 14 -16 17
-8 3 -12 10 -9 16 3 5 4 10 1 10 -3 0 -7 -4 -10 -9z"/>
<path d="M290 703 c0 -4 5 -15 10 -23 8 -13 10 -13 10 2 0 9 -4 20 -10 23 -5
3 -10 3 -10 -2z"/>
<path d="M311 624 c0 -11 3 -14 6 -6 3 7 2 16 -1 19 -3 4 -6 -2 -5 -13z"/>
</g>
</svg>
